<mxfile host="app.diagrams.net" agent="Mozilla/5.0 (Windows NT 10.0; Win64; x64) AppleWebKit/537.36 (KHTML, like Gecko) Chrome/131.0.0.0 Safari/537.36" version="24.9.0">
  <diagram id="C5RBs43oDa-KdzZeNtuy" name="Page-1">
    <mxGraphModel dx="1793" dy="975" grid="1" gridSize="10" guides="1" tooltips="1" connect="1" arrows="1" fold="1" page="1" pageScale="1" pageWidth="827" pageHeight="1169" math="0" shadow="0">
      <root>
        <mxCell id="WIyWlLk6GJQsqaUBKTNV-0" />
        <mxCell id="WIyWlLk6GJQsqaUBKTNV-1" parent="WIyWlLk6GJQsqaUBKTNV-0" />
        <mxCell id="yGO92v6kx1Tn_r5LJkaN-2" style="edgeStyle=none;curved=1;rounded=0;orthogonalLoop=1;jettySize=auto;html=1;fontSize=12;startSize=8;endSize=8;" parent="WIyWlLk6GJQsqaUBKTNV-1" source="yGO92v6kx1Tn_r5LJkaN-0" target="yGO92v6kx1Tn_r5LJkaN-1" edge="1">
          <mxGeometry relative="1" as="geometry" />
        </mxCell>
        <mxCell id="yGO92v6kx1Tn_r5LJkaN-0" value="&lt;font&gt;Начало&lt;/font&gt;" style="ellipse;whiteSpace=wrap;html=1;" parent="WIyWlLk6GJQsqaUBKTNV-1" vertex="1">
          <mxGeometry x="190" width="130" height="60" as="geometry" />
        </mxCell>
        <mxCell id="yGO92v6kx1Tn_r5LJkaN-13" style="edgeStyle=none;curved=1;rounded=0;orthogonalLoop=1;jettySize=auto;html=1;entryX=0.5;entryY=0;entryDx=0;entryDy=0;fontSize=12;startSize=8;endSize=8;" parent="WIyWlLk6GJQsqaUBKTNV-1" source="yGO92v6kx1Tn_r5LJkaN-1" target="yGO92v6kx1Tn_r5LJkaN-12" edge="1">
          <mxGeometry relative="1" as="geometry" />
        </mxCell>
        <mxCell id="yGO92v6kx1Tn_r5LJkaN-1" value="&lt;font&gt;Запуск приложения&lt;/font&gt;" style="rounded=0;whiteSpace=wrap;html=1;" parent="WIyWlLk6GJQsqaUBKTNV-1" vertex="1">
          <mxGeometry x="195" y="90" width="120" height="30" as="geometry" />
        </mxCell>
        <mxCell id="yGO92v6kx1Tn_r5LJkaN-7" style="rounded=0;orthogonalLoop=1;jettySize=auto;html=1;entryX=0.5;entryY=0;entryDx=0;entryDy=0;fontSize=12;startSize=8;endSize=8;" parent="WIyWlLk6GJQsqaUBKTNV-1" source="yGO92v6kx1Tn_r5LJkaN-3" target="yGO92v6kx1Tn_r5LJkaN-5" edge="1">
          <mxGeometry relative="1" as="geometry">
            <Array as="points">
              <mxPoint x="95" y="245" />
            </Array>
          </mxGeometry>
        </mxCell>
        <mxCell id="yGO92v6kx1Tn_r5LJkaN-8" style="rounded=0;orthogonalLoop=1;jettySize=auto;html=1;entryX=0.5;entryY=0;entryDx=0;entryDy=0;fontSize=12;startSize=8;endSize=8;" parent="WIyWlLk6GJQsqaUBKTNV-1" source="yGO92v6kx1Tn_r5LJkaN-3" target="yGO92v6kx1Tn_r5LJkaN-6" edge="1">
          <mxGeometry relative="1" as="geometry">
            <Array as="points">
              <mxPoint x="415" y="245" />
            </Array>
          </mxGeometry>
        </mxCell>
        <mxCell id="yGO92v6kx1Tn_r5LJkaN-3" value="&lt;font&gt;У пользователя есть аккаунт?&lt;/font&gt;" style="rhombus;whiteSpace=wrap;html=1;" parent="WIyWlLk6GJQsqaUBKTNV-1" vertex="1">
          <mxGeometry x="175" y="210" width="160" height="70" as="geometry" />
        </mxCell>
        <mxCell id="yGO92v6kx1Tn_r5LJkaN-19" style="edgeStyle=none;curved=0;rounded=0;orthogonalLoop=1;jettySize=auto;html=1;entryX=0;entryY=0.5;entryDx=0;entryDy=0;fontSize=12;startSize=8;endSize=8;exitX=0.452;exitY=1.082;exitDx=0;exitDy=0;exitPerimeter=0;" parent="WIyWlLk6GJQsqaUBKTNV-1" source="yGO92v6kx1Tn_r5LJkaN-5" target="yGO92v6kx1Tn_r5LJkaN-18" edge="1">
          <mxGeometry relative="1" as="geometry">
            <Array as="points">
              <mxPoint x="90" y="320" />
            </Array>
          </mxGeometry>
        </mxCell>
        <mxCell id="yGO92v6kx1Tn_r5LJkaN-5" value="Авторизация" style="rounded=0;whiteSpace=wrap;html=1;" parent="WIyWlLk6GJQsqaUBKTNV-1" vertex="1">
          <mxGeometry x="35" y="260" width="120" height="30" as="geometry" />
        </mxCell>
        <mxCell id="yGO92v6kx1Tn_r5LJkaN-16" style="rounded=0;orthogonalLoop=1;jettySize=auto;html=1;entryX=1;entryY=0.25;entryDx=0;entryDy=0;fontSize=12;startSize=8;endSize=8;strokeColor=none;" parent="WIyWlLk6GJQsqaUBKTNV-1" source="yGO92v6kx1Tn_r5LJkaN-6" target="yGO92v6kx1Tn_r5LJkaN-12" edge="1">
          <mxGeometry relative="1" as="geometry">
            <Array as="points">
              <mxPoint x="520" y="290" />
              <mxPoint x="520" y="158" />
            </Array>
          </mxGeometry>
        </mxCell>
        <mxCell id="yGO92v6kx1Tn_r5LJkaN-17" style="edgeStyle=none;curved=0;rounded=0;orthogonalLoop=1;jettySize=auto;html=1;entryX=1;entryY=0.5;entryDx=0;entryDy=0;fontSize=12;startSize=8;endSize=8;" parent="WIyWlLk6GJQsqaUBKTNV-1" source="yGO92v6kx1Tn_r5LJkaN-6" target="yGO92v6kx1Tn_r5LJkaN-12" edge="1">
          <mxGeometry relative="1" as="geometry">
            <Array as="points">
              <mxPoint x="540" y="295" />
              <mxPoint x="540" y="165" />
            </Array>
          </mxGeometry>
        </mxCell>
        <mxCell id="yGO92v6kx1Tn_r5LJkaN-6" value="Регистрация" style="rounded=0;whiteSpace=wrap;html=1;" parent="WIyWlLk6GJQsqaUBKTNV-1" vertex="1">
          <mxGeometry x="355" y="280" width="120" height="30" as="geometry" />
        </mxCell>
        <mxCell id="yGO92v6kx1Tn_r5LJkaN-15" value="" style="edgeStyle=none;curved=1;rounded=0;orthogonalLoop=1;jettySize=auto;html=1;fontSize=12;startSize=8;endSize=8;" parent="WIyWlLk6GJQsqaUBKTNV-1" source="yGO92v6kx1Tn_r5LJkaN-12" target="yGO92v6kx1Tn_r5LJkaN-3" edge="1">
          <mxGeometry relative="1" as="geometry" />
        </mxCell>
        <mxCell id="yGO92v6kx1Tn_r5LJkaN-12" value="Окно авторизации" style="rounded=0;whiteSpace=wrap;html=1;" parent="WIyWlLk6GJQsqaUBKTNV-1" vertex="1">
          <mxGeometry x="195" y="150" width="120" height="30" as="geometry" />
        </mxCell>
        <mxCell id="rOeLhvQzMy3cXVd5Mroi-1" style="edgeStyle=orthogonalEdgeStyle;rounded=0;orthogonalLoop=1;jettySize=auto;html=1;entryX=0.5;entryY=0;entryDx=0;entryDy=0;" edge="1" parent="WIyWlLk6GJQsqaUBKTNV-1" source="yGO92v6kx1Tn_r5LJkaN-18" target="rOeLhvQzMy3cXVd5Mroi-0">
          <mxGeometry relative="1" as="geometry">
            <Array as="points">
              <mxPoint x="255" y="350" />
              <mxPoint x="60" y="350" />
            </Array>
          </mxGeometry>
        </mxCell>
        <mxCell id="rOeLhvQzMy3cXVd5Mroi-5" style="edgeStyle=orthogonalEdgeStyle;rounded=0;orthogonalLoop=1;jettySize=auto;html=1;entryX=0.5;entryY=0;entryDx=0;entryDy=0;" edge="1" parent="WIyWlLk6GJQsqaUBKTNV-1" source="yGO92v6kx1Tn_r5LJkaN-18" target="rOeLhvQzMy3cXVd5Mroi-4">
          <mxGeometry relative="1" as="geometry">
            <Array as="points">
              <mxPoint x="255" y="400" />
              <mxPoint x="420" y="400" />
              <mxPoint x="420" y="500" />
            </Array>
          </mxGeometry>
        </mxCell>
        <mxCell id="rOeLhvQzMy3cXVd5Mroi-7" style="edgeStyle=orthogonalEdgeStyle;rounded=0;orthogonalLoop=1;jettySize=auto;html=1;entryX=0.518;entryY=0.042;entryDx=0;entryDy=0;entryPerimeter=0;" edge="1" parent="WIyWlLk6GJQsqaUBKTNV-1" source="yGO92v6kx1Tn_r5LJkaN-18" target="rOeLhvQzMy3cXVd5Mroi-6">
          <mxGeometry relative="1" as="geometry">
            <Array as="points">
              <mxPoint x="255" y="400" />
              <mxPoint x="253" y="400" />
            </Array>
          </mxGeometry>
        </mxCell>
        <mxCell id="yGO92v6kx1Tn_r5LJkaN-18" value="Меню приложения" style="rounded=0;whiteSpace=wrap;html=1;" parent="WIyWlLk6GJQsqaUBKTNV-1" vertex="1">
          <mxGeometry x="195" y="300" width="120" height="40" as="geometry" />
        </mxCell>
        <mxCell id="rOeLhvQzMy3cXVd5Mroi-32" style="edgeStyle=orthogonalEdgeStyle;rounded=0;orthogonalLoop=1;jettySize=auto;html=1;entryX=0.5;entryY=0;entryDx=0;entryDy=0;" edge="1" parent="WIyWlLk6GJQsqaUBKTNV-1" source="rOeLhvQzMy3cXVd5Mroi-0" target="rOeLhvQzMy3cXVd5Mroi-31">
          <mxGeometry relative="1" as="geometry">
            <Array as="points">
              <mxPoint x="30" y="750" />
              <mxPoint x="400" y="750" />
              <mxPoint x="400" y="850" />
            </Array>
          </mxGeometry>
        </mxCell>
        <mxCell id="rOeLhvQzMy3cXVd5Mroi-0" value="Страница о себе" style="rounded=0;whiteSpace=wrap;html=1;" vertex="1" parent="WIyWlLk6GJQsqaUBKTNV-1">
          <mxGeometry y="360" width="120" height="30" as="geometry" />
        </mxCell>
        <mxCell id="rOeLhvQzMy3cXVd5Mroi-17" style="edgeStyle=orthogonalEdgeStyle;rounded=0;orthogonalLoop=1;jettySize=auto;html=1;" edge="1" parent="WIyWlLk6GJQsqaUBKTNV-1" source="rOeLhvQzMy3cXVd5Mroi-2" target="rOeLhvQzMy3cXVd5Mroi-16">
          <mxGeometry relative="1" as="geometry" />
        </mxCell>
        <mxCell id="rOeLhvQzMy3cXVd5Mroi-2" value="Страница отзывы" style="rounded=0;whiteSpace=wrap;html=1;" vertex="1" parent="WIyWlLk6GJQsqaUBKTNV-1">
          <mxGeometry x="657" y="370" width="120" height="30" as="geometry" />
        </mxCell>
        <mxCell id="rOeLhvQzMy3cXVd5Mroi-3" style="edgeStyle=orthogonalEdgeStyle;rounded=0;orthogonalLoop=1;jettySize=auto;html=1;entryX=0.618;entryY=0.028;entryDx=0;entryDy=0;entryPerimeter=0;" edge="1" parent="WIyWlLk6GJQsqaUBKTNV-1" source="yGO92v6kx1Tn_r5LJkaN-18" target="rOeLhvQzMy3cXVd5Mroi-2">
          <mxGeometry relative="1" as="geometry">
            <Array as="points">
              <mxPoint x="255" y="350" />
              <mxPoint x="731" y="350" />
            </Array>
          </mxGeometry>
        </mxCell>
        <mxCell id="rOeLhvQzMy3cXVd5Mroi-24" style="edgeStyle=orthogonalEdgeStyle;rounded=0;orthogonalLoop=1;jettySize=auto;html=1;" edge="1" parent="WIyWlLk6GJQsqaUBKTNV-1" source="rOeLhvQzMy3cXVd5Mroi-4" target="rOeLhvQzMy3cXVd5Mroi-23">
          <mxGeometry relative="1" as="geometry" />
        </mxCell>
        <mxCell id="rOeLhvQzMy3cXVd5Mroi-4" value="Страница книги" style="rounded=0;whiteSpace=wrap;html=1;" vertex="1" parent="WIyWlLk6GJQsqaUBKTNV-1">
          <mxGeometry x="360" y="510" width="120" height="30" as="geometry" />
        </mxCell>
        <mxCell id="rOeLhvQzMy3cXVd5Mroi-11" style="edgeStyle=orthogonalEdgeStyle;rounded=0;orthogonalLoop=1;jettySize=auto;html=1;entryX=0.25;entryY=0;entryDx=0;entryDy=0;" edge="1" parent="WIyWlLk6GJQsqaUBKTNV-1" source="rOeLhvQzMy3cXVd5Mroi-6" target="rOeLhvQzMy3cXVd5Mroi-4">
          <mxGeometry relative="1" as="geometry" />
        </mxCell>
        <mxCell id="rOeLhvQzMy3cXVd5Mroi-6" value="&lt;font&gt;У пользователя есть книги в полке?&lt;/font&gt;" style="rhombus;whiteSpace=wrap;html=1;" vertex="1" parent="WIyWlLk6GJQsqaUBKTNV-1">
          <mxGeometry x="165" y="400" width="170" height="80" as="geometry" />
        </mxCell>
        <mxCell id="rOeLhvQzMy3cXVd5Mroi-33" style="edgeStyle=orthogonalEdgeStyle;rounded=0;orthogonalLoop=1;jettySize=auto;html=1;entryX=0.5;entryY=0;entryDx=0;entryDy=0;" edge="1" parent="WIyWlLk6GJQsqaUBKTNV-1" source="rOeLhvQzMy3cXVd5Mroi-8" target="rOeLhvQzMy3cXVd5Mroi-31">
          <mxGeometry relative="1" as="geometry">
            <Array as="points">
              <mxPoint x="100" y="750" />
              <mxPoint x="400" y="750" />
              <mxPoint x="400" y="850" />
            </Array>
          </mxGeometry>
        </mxCell>
        <mxCell id="rOeLhvQzMy3cXVd5Mroi-8" value="Страница книжной полки" style="rounded=0;whiteSpace=wrap;html=1;" vertex="1" parent="WIyWlLk6GJQsqaUBKTNV-1">
          <mxGeometry x="40" y="510" width="120" height="40" as="geometry" />
        </mxCell>
        <mxCell id="rOeLhvQzMy3cXVd5Mroi-10" style="edgeStyle=orthogonalEdgeStyle;rounded=0;orthogonalLoop=1;jettySize=auto;html=1;entryX=0.451;entryY=0.042;entryDx=0;entryDy=0;entryPerimeter=0;" edge="1" parent="WIyWlLk6GJQsqaUBKTNV-1" source="rOeLhvQzMy3cXVd5Mroi-6" target="rOeLhvQzMy3cXVd5Mroi-8">
          <mxGeometry relative="1" as="geometry">
            <Array as="points">
              <mxPoint x="94" y="480" />
            </Array>
          </mxGeometry>
        </mxCell>
        <mxCell id="rOeLhvQzMy3cXVd5Mroi-12" value="Да" style="text;html=1;align=center;verticalAlign=middle;whiteSpace=wrap;rounded=0;" vertex="1" parent="WIyWlLk6GJQsqaUBKTNV-1">
          <mxGeometry x="100" y="460" width="60" height="30" as="geometry" />
        </mxCell>
        <mxCell id="rOeLhvQzMy3cXVd5Mroi-13" value="Да" style="text;html=1;align=center;verticalAlign=middle;whiteSpace=wrap;rounded=0;" vertex="1" parent="WIyWlLk6GJQsqaUBKTNV-1">
          <mxGeometry x="120" y="230" width="60" height="20" as="geometry" />
        </mxCell>
        <mxCell id="rOeLhvQzMy3cXVd5Mroi-14" value="Нет" style="text;html=1;align=center;verticalAlign=middle;whiteSpace=wrap;rounded=0;" vertex="1" parent="WIyWlLk6GJQsqaUBKTNV-1">
          <mxGeometry x="340" y="220" width="60" height="30" as="geometry" />
        </mxCell>
        <mxCell id="rOeLhvQzMy3cXVd5Mroi-15" value="Нет" style="text;html=1;align=center;verticalAlign=middle;whiteSpace=wrap;rounded=0;" vertex="1" parent="WIyWlLk6GJQsqaUBKTNV-1">
          <mxGeometry x="350" y="460" width="60" height="30" as="geometry" />
        </mxCell>
        <mxCell id="rOeLhvQzMy3cXVd5Mroi-20" style="edgeStyle=orthogonalEdgeStyle;rounded=0;orthogonalLoop=1;jettySize=auto;html=1;entryX=1;entryY=0.25;entryDx=0;entryDy=0;" edge="1" parent="WIyWlLk6GJQsqaUBKTNV-1" source="rOeLhvQzMy3cXVd5Mroi-16" target="rOeLhvQzMy3cXVd5Mroi-2">
          <mxGeometry relative="1" as="geometry">
            <Array as="points">
              <mxPoint x="817" y="515" />
              <mxPoint x="817" y="378" />
            </Array>
          </mxGeometry>
        </mxCell>
        <mxCell id="rOeLhvQzMy3cXVd5Mroi-16" value="Оставить отзыв?" style="rhombus;whiteSpace=wrap;html=1;" vertex="1" parent="WIyWlLk6GJQsqaUBKTNV-1">
          <mxGeometry x="647" y="475" width="140" height="80" as="geometry" />
        </mxCell>
        <mxCell id="rOeLhvQzMy3cXVd5Mroi-18" value="Форма для отзыва" style="rounded=0;whiteSpace=wrap;html=1;" vertex="1" parent="WIyWlLk6GJQsqaUBKTNV-1">
          <mxGeometry x="552" y="600" width="120" height="30" as="geometry" />
        </mxCell>
        <mxCell id="rOeLhvQzMy3cXVd5Mroi-19" style="edgeStyle=orthogonalEdgeStyle;rounded=0;orthogonalLoop=1;jettySize=auto;html=1;entryX=0.409;entryY=0.067;entryDx=0;entryDy=0;entryPerimeter=0;" edge="1" parent="WIyWlLk6GJQsqaUBKTNV-1" source="rOeLhvQzMy3cXVd5Mroi-16" target="rOeLhvQzMy3cXVd5Mroi-18">
          <mxGeometry relative="1" as="geometry">
            <Array as="points">
              <mxPoint x="601" y="515" />
            </Array>
          </mxGeometry>
        </mxCell>
        <mxCell id="rOeLhvQzMy3cXVd5Mroi-21" value="Да" style="text;html=1;align=center;verticalAlign=middle;whiteSpace=wrap;rounded=0;" vertex="1" parent="WIyWlLk6GJQsqaUBKTNV-1">
          <mxGeometry x="597" y="490" width="60" height="30" as="geometry" />
        </mxCell>
        <mxCell id="rOeLhvQzMy3cXVd5Mroi-22" value="Нет" style="text;html=1;align=center;verticalAlign=middle;whiteSpace=wrap;rounded=0;" vertex="1" parent="WIyWlLk6GJQsqaUBKTNV-1">
          <mxGeometry x="767" y="490" width="60" height="30" as="geometry" />
        </mxCell>
        <mxCell id="rOeLhvQzMy3cXVd5Mroi-26" style="edgeStyle=orthogonalEdgeStyle;rounded=0;orthogonalLoop=1;jettySize=auto;html=1;entryX=1;entryY=0.25;entryDx=0;entryDy=0;" edge="1" parent="WIyWlLk6GJQsqaUBKTNV-1" source="rOeLhvQzMy3cXVd5Mroi-23" target="rOeLhvQzMy3cXVd5Mroi-4">
          <mxGeometry relative="1" as="geometry">
            <Array as="points">
              <mxPoint x="520" y="615" />
              <mxPoint x="520" y="518" />
            </Array>
          </mxGeometry>
        </mxCell>
        <mxCell id="rOeLhvQzMy3cXVd5Mroi-23" value="Добавить книгу?" style="rhombus;whiteSpace=wrap;html=1;" vertex="1" parent="WIyWlLk6GJQsqaUBKTNV-1">
          <mxGeometry x="358" y="580" width="124" height="70" as="geometry" />
        </mxCell>
        <mxCell id="rOeLhvQzMy3cXVd5Mroi-36" value="" style="edgeStyle=orthogonalEdgeStyle;rounded=0;orthogonalLoop=1;jettySize=auto;html=1;" edge="1" parent="WIyWlLk6GJQsqaUBKTNV-1" source="rOeLhvQzMy3cXVd5Mroi-25" target="rOeLhvQzMy3cXVd5Mroi-35">
          <mxGeometry relative="1" as="geometry" />
        </mxCell>
        <mxCell id="rOeLhvQzMy3cXVd5Mroi-25" value="Форма для добавления" style="rounded=0;whiteSpace=wrap;html=1;" vertex="1" parent="WIyWlLk6GJQsqaUBKTNV-1">
          <mxGeometry x="240" y="630" width="120" height="30" as="geometry" />
        </mxCell>
        <mxCell id="rOeLhvQzMy3cXVd5Mroi-27" style="edgeStyle=orthogonalEdgeStyle;rounded=0;orthogonalLoop=1;jettySize=auto;html=1;entryX=0.393;entryY=0.136;entryDx=0;entryDy=0;entryPerimeter=0;" edge="1" parent="WIyWlLk6GJQsqaUBKTNV-1" source="rOeLhvQzMy3cXVd5Mroi-23" target="rOeLhvQzMy3cXVd5Mroi-25">
          <mxGeometry relative="1" as="geometry">
            <Array as="points">
              <mxPoint x="287" y="615" />
              <mxPoint x="287" y="630" />
            </Array>
          </mxGeometry>
        </mxCell>
        <mxCell id="rOeLhvQzMy3cXVd5Mroi-28" value="Да" style="text;html=1;align=center;verticalAlign=middle;whiteSpace=wrap;rounded=0;" vertex="1" parent="WIyWlLk6GJQsqaUBKTNV-1">
          <mxGeometry x="300" y="590" width="60" height="30" as="geometry" />
        </mxCell>
        <mxCell id="rOeLhvQzMy3cXVd5Mroi-30" value="Нет" style="text;html=1;align=center;verticalAlign=middle;whiteSpace=wrap;rounded=0;" vertex="1" parent="WIyWlLk6GJQsqaUBKTNV-1">
          <mxGeometry x="460" y="590" width="60" height="30" as="geometry" />
        </mxCell>
        <mxCell id="rOeLhvQzMy3cXVd5Mroi-49" style="edgeStyle=orthogonalEdgeStyle;rounded=0;orthogonalLoop=1;jettySize=auto;html=1;" edge="1" parent="WIyWlLk6GJQsqaUBKTNV-1" source="rOeLhvQzMy3cXVd5Mroi-31" target="rOeLhvQzMy3cXVd5Mroi-48">
          <mxGeometry relative="1" as="geometry" />
        </mxCell>
        <mxCell id="rOeLhvQzMy3cXVd5Mroi-31" value="Закрыть приложение" style="rounded=0;whiteSpace=wrap;html=1;" vertex="1" parent="WIyWlLk6GJQsqaUBKTNV-1">
          <mxGeometry x="340" y="780" width="120" height="30" as="geometry" />
        </mxCell>
        <mxCell id="rOeLhvQzMy3cXVd5Mroi-37" style="edgeStyle=orthogonalEdgeStyle;rounded=0;orthogonalLoop=1;jettySize=auto;html=1;entryX=0;entryY=0.5;entryDx=0;entryDy=0;" edge="1" parent="WIyWlLk6GJQsqaUBKTNV-1" source="rOeLhvQzMy3cXVd5Mroi-35" target="rOeLhvQzMy3cXVd5Mroi-4">
          <mxGeometry relative="1" as="geometry">
            <Array as="points">
              <mxPoint x="210" y="710" />
              <mxPoint x="210" y="525" />
            </Array>
          </mxGeometry>
        </mxCell>
        <mxCell id="rOeLhvQzMy3cXVd5Mroi-38" style="edgeStyle=orthogonalEdgeStyle;rounded=0;orthogonalLoop=1;jettySize=auto;html=1;entryX=1;entryY=0.75;entryDx=0;entryDy=0;" edge="1" parent="WIyWlLk6GJQsqaUBKTNV-1" source="rOeLhvQzMy3cXVd5Mroi-35" target="rOeLhvQzMy3cXVd5Mroi-25">
          <mxGeometry relative="1" as="geometry">
            <Array as="points">
              <mxPoint x="390" y="710" />
              <mxPoint x="390" y="652" />
            </Array>
          </mxGeometry>
        </mxCell>
        <mxCell id="rOeLhvQzMy3cXVd5Mroi-35" value="Книга добавлена?" style="rhombus;whiteSpace=wrap;html=1;" vertex="1" parent="WIyWlLk6GJQsqaUBKTNV-1">
          <mxGeometry x="240" y="690" width="120" height="40" as="geometry" />
        </mxCell>
        <mxCell id="rOeLhvQzMy3cXVd5Mroi-39" value="Да" style="text;html=1;align=center;verticalAlign=middle;whiteSpace=wrap;rounded=0;" vertex="1" parent="WIyWlLk6GJQsqaUBKTNV-1">
          <mxGeometry x="195" y="690" width="60" height="30" as="geometry" />
        </mxCell>
        <mxCell id="rOeLhvQzMy3cXVd5Mroi-40" value="Нет" style="text;html=1;align=center;verticalAlign=middle;whiteSpace=wrap;rounded=0;" vertex="1" parent="WIyWlLk6GJQsqaUBKTNV-1">
          <mxGeometry x="340" y="690" width="60" height="30" as="geometry" />
        </mxCell>
        <mxCell id="rOeLhvQzMy3cXVd5Mroi-42" style="edgeStyle=orthogonalEdgeStyle;rounded=0;orthogonalLoop=1;jettySize=auto;html=1;entryX=0;entryY=0.5;entryDx=0;entryDy=0;" edge="1" parent="WIyWlLk6GJQsqaUBKTNV-1" source="rOeLhvQzMy3cXVd5Mroi-41" target="rOeLhvQzMy3cXVd5Mroi-2">
          <mxGeometry relative="1" as="geometry">
            <Array as="points">
              <mxPoint x="530" y="675" />
              <mxPoint x="530" y="435" />
            </Array>
          </mxGeometry>
        </mxCell>
        <mxCell id="rOeLhvQzMy3cXVd5Mroi-43" style="edgeStyle=orthogonalEdgeStyle;rounded=0;orthogonalLoop=1;jettySize=auto;html=1;entryX=1;entryY=0.5;entryDx=0;entryDy=0;" edge="1" parent="WIyWlLk6GJQsqaUBKTNV-1" source="rOeLhvQzMy3cXVd5Mroi-41" target="rOeLhvQzMy3cXVd5Mroi-18">
          <mxGeometry relative="1" as="geometry">
            <Array as="points">
              <mxPoint x="690" y="680" />
              <mxPoint x="690" y="615" />
            </Array>
          </mxGeometry>
        </mxCell>
        <mxCell id="rOeLhvQzMy3cXVd5Mroi-41" value="Отзыв добавлен?" style="rhombus;whiteSpace=wrap;html=1;" vertex="1" parent="WIyWlLk6GJQsqaUBKTNV-1">
          <mxGeometry x="550" y="650" width="110" height="50" as="geometry" />
        </mxCell>
        <mxCell id="rOeLhvQzMy3cXVd5Mroi-44" value="&lt;font style=&quot;font-size: 10px;&quot;&gt;Да&lt;/font&gt;" style="text;html=1;align=center;verticalAlign=middle;whiteSpace=wrap;rounded=0;" vertex="1" parent="WIyWlLk6GJQsqaUBKTNV-1">
          <mxGeometry x="510" y="650" width="60" height="30" as="geometry" />
        </mxCell>
        <mxCell id="rOeLhvQzMy3cXVd5Mroi-45" value="Нет" style="text;html=1;align=center;verticalAlign=middle;whiteSpace=wrap;rounded=0;" vertex="1" parent="WIyWlLk6GJQsqaUBKTNV-1">
          <mxGeometry x="647" y="660" width="60" height="30" as="geometry" />
        </mxCell>
        <mxCell id="rOeLhvQzMy3cXVd5Mroi-47" style="edgeStyle=orthogonalEdgeStyle;rounded=0;orthogonalLoop=1;jettySize=auto;html=1;" edge="1" parent="WIyWlLk6GJQsqaUBKTNV-1" source="rOeLhvQzMy3cXVd5Mroi-2">
          <mxGeometry relative="1" as="geometry">
            <mxPoint x="400" y="780" as="targetPoint" />
            <Array as="points">
              <mxPoint x="717" y="460" />
              <mxPoint x="530" y="460" />
              <mxPoint x="530" y="750" />
              <mxPoint x="400" y="750" />
            </Array>
          </mxGeometry>
        </mxCell>
        <mxCell id="rOeLhvQzMy3cXVd5Mroi-48" value="Конец" style="ellipse;whiteSpace=wrap;html=1;" vertex="1" parent="WIyWlLk6GJQsqaUBKTNV-1">
          <mxGeometry x="340" y="830" width="120" height="50" as="geometry" />
        </mxCell>
      </root>
    </mxGraphModel>
  </diagram>
</mxfile>
